# xmcd
#
# Track frame offsets:
#	150
#	11127
#	27944
#	39914
#	49568
#	59297
#	71586
#	85868
#	99215
#	111125
#	122962
#	134414
#	145933
#	154758
#	166630
#	180147
#	193304
#	205106
#
# Disc length: 2954
#
# Revision: 1
# Processed by: cddbd v1.5.1PL0 Copyright (c) Steve Scherf et al.
# Submitted via: VisiTrax 2.9.3.171 - For more info visit www.synapsa.com
# Normalized: r0:DSETVAR1
#
DISCID=ea0b8812
DTITLE=Various Artist - Kings Of The Road
DYEAR=2001
DGENRE=Country
TTITLE0=Roger Miller - King Of The Road
TTITLE1=Willie Nelson - Pretty Paper
TTITLE2=Merle Haggard - From Graceland To The Promised Land
TTITLE3=Patsy Cline - I'm Moving Along
TTITLE4=Merle Travis - 16 Tons
TTITLE5=Johnny Dollar - Big Big Rolling Man
TTITLE6=Billie Jo Spears - Which Way You Goin' Billy
TTITLE7=Kenny Rogers - Ruby (Don´t Take Your Love To Town)
TTITLE8=Dave Duddley - Yellow Rose Of Texas
TTITLE9=Johnny Dollar - Big Wheels Sing For Me
TTITLE10=Ferlin Husky - Country Music Is There To Stay
TTITLE11=Stoney Cooper and Wilma Lee - Big Midnight Special
TTITLE12=Waylon Jennings - Abilene
TTITLE13=Buck Owens - Foolin' Around
TTITLE14=Patti Page - Tennessee Waltz
TTITLE15=Don Williams - Where Do We Go From Here
TTITLE16=Gene Autry - Vaya Con Dios
TTITLE17=Johnny Cash - City Of New Orleans
EXTD=
EXTT0=
EXTT1=
EXTT2=
EXTT3=
EXTT4=
EXTT5=
EXTT6=
EXTT7=
EXTT8=
EXTT9=
EXTT10=
EXTT11=
EXTT12=
EXTT13=
EXTT14=
EXTT15=
EXTT16=
EXTT17=
PLAYORDER=
